<?xml version="1.0" encoding="utf-8"?>
<!-- Generator: Adobe Illustrator 19.0.0, SVG Export Plug-In . SVG Version: 6.00 Build 0)  -->
<svg version="1.1" id="图层_1" xmlns="http://www.w3.org/2000/svg" xmlns:xlink="http://www.w3.org/1999/xlink" x="0px" y="0px"
	 viewBox="0 0 50 50" style="enable-background:new 0 0 50 50;" xml:space="preserve">
<style type="text/css">
	.st0{fill:#8E8E8E;}
</style>
<g id="XMLID_2_">
	<path id="XMLID_5_" class="st0" d="M30.3,17.4c0.6,0.4,1.2,1,1.7,1.5c0.5,0.6,0.9,1.2,1.2,1.8c0.3,0.7,0.6,1.3,0.8,2.1
		c0.2,0.7,0.3,1.5,0.3,2.2c0,1.3-0.2,2.5-0.7,3.6c-0.5,1.1-1.2,2.1-2,3c-0.8,0.8-1.8,1.5-3,2c-1.1,0.5-2.3,0.7-3.6,0.7
		c-1.3,0-2.5-0.2-3.6-0.7c-1.1-0.5-2.1-1.2-3-2c-0.8-0.8-1.5-1.8-2-3c-0.5-1.1-0.7-2.4-0.7-3.6c0-0.7,0.1-1.5,0.3-2.2
		c0.2-0.7,0.4-1.4,0.7-2c0.3-0.6,0.7-1.2,1.2-1.8c0.5-0.6,1-1.1,1.6-1.5c0.3-0.2,0.6-0.3,1-0.3c0.4,0.1,0.6,0.2,0.9,0.5
		c0.2,0.3,0.3,0.6,0.2,1c-0.1,0.4-0.2,0.7-0.5,0.9c-0.9,0.6-1.5,1.4-2,2.4c-0.5,0.9-0.7,1.9-0.7,3c0,0.9,0.2,1.8,0.5,2.6
		c0.3,0.8,0.8,1.5,1.4,2.1c0.6,0.6,1.3,1.1,2.1,1.4c0.8,0.4,1.7,0.5,2.6,0.5s1.8-0.2,2.6-0.5c0.8-0.4,1.5-0.8,2.1-1.4
		c0.6-0.6,1.1-1.3,1.4-2.1c0.4-0.8,0.5-1.7,0.5-2.6c0-1.1-0.2-2.1-0.7-3.1c-0.5-1-1.2-1.8-2.1-2.4c-0.3-0.2-0.5-0.5-0.6-0.9
		c-0.1-0.4,0-0.7,0.2-1c0.2-0.3,0.5-0.5,0.9-0.5C29.7,17.1,30,17.2,30.3,17.4L30.3,17.4z M25,25.1c-0.4,0-0.7-0.1-0.9-0.4
		c-0.3-0.3-0.4-0.6-0.4-0.9v-7.9c0-0.4,0.1-0.7,0.4-0.9c0.3-0.3,0.6-0.4,0.9-0.4c0.4,0,0.7,0.1,0.9,0.4c0.3,0.3,0.4,0.6,0.4,0.9v7.9
		c0,0.4-0.1,0.7-0.4,0.9C25.7,25,25.4,25.1,25,25.1L25,25.1z M25,25.1"/>
	<path id="XMLID_3_" class="st0" d="M42.9,10.9c-0.6,0-1.1,0.5-1.1,1.2v3.2C38.8,9.6,32.8,6,25.3,6C14.6,6,6,14.5,6,25
		c0,10.5,8.6,19,19.3,19c4.1,0,7.5-1.1,10.4-3.1l0,0c0,0,0.1,0,0.1-0.1c0.7-0.5,1.3-1,1.9-1.5c2.9-2.5,3.7-4.1,3.7-4.1
		c0.4-0.5,0.3-1.2-0.1-1.6c-0.5-0.4-1.2-0.2-1.6,0.3l-1.4,1.8c-3.1,3.7-7.8,6.1-13.1,6.1c-9.4,0-17-7.5-17-16.8
		c0-9.3,7.6-16.8,17-16.8c8,0,14.8,5.5,16.5,12.9c0,0.2,0,0.4,0.1,0.5c0,0,0,0,0,0.1l0,0c0.2,0.4,0.5,0.6,0.9,0.6
		c0.6,0,1.1-0.5,1.1-1.2v-9C44,11.4,43.5,10.9,42.9,10.9L42.9,10.9z"/>
</g>
</svg>
